<svg xmlns="http://www.w3.org/2000/svg" viewBox="0 0 55.23 66.58"><defs><style>.cls-1{fill:#010101;}</style></defs><g id="Layer_2" data-name="Layer 2"><g id="Layer_1-2" data-name="Layer 1"><g id="LOGO_IX" data-name="LOGO IX"><polygon class="cls-1" points="10.67 14.68 0 17.66 0.07 50.97 10.74 50.95 10.67 14.68"/><polygon class="cls-1" points="22.55 50.93 33.16 37.98 42.81 50.89 54.82 50.87 39.48 30.35 52.06 15 44.48 15.01 35.86 25.46 28.03 15.04 16.05 15.07 29.61 33.16 14.97 50.94 22.55 50.93"/><path class="cls-1" d="M.3,7c0,.09.07.19.11.29s.07.17.11.26l.11.24a5,5,0,0,0,.55.83,5.3,5.3,0,0,0,1,.9,2.83,2.83,0,0,0,.28.2,5.23,5.23,0,0,0,4,.7A5,5,0,0,0,9.66,8.1a5.09,5.09,0,0,0,.84-3.43c0-.06,0-.12,0-.18s0-.19-.05-.29A2.1,2.1,0,0,0,10.37,4a.08.08,0,0,0,0,0s0,0,0,0a4.9,4.9,0,0,0-.5-1.2A5.4,5.4,0,0,0,8.13.91,4.93,4.93,0,0,0,4.25.11,5.16,5.16,0,0,0,.89,2.43a5.06,5.06,0,0,0-.76,4c0,.2.11.39.17.59"/></g><path class="cls-1" d="M.62,61.24a1.47,1.47,0,0,1,1.65-1.37,3.51,3.51,0,0,1,1.84.52l.13-.6a3.64,3.64,0,0,0-1.94-.54,2.06,2.06,0,0,0-2.3,2c0,2.48,3.75,1.44,3.75,3.36,0,.74-.63,1.36-1.69,1.36a4.31,4.31,0,0,1-2-.43l-.09.6a4.57,4.57,0,0,0,2,.44,2.11,2.11,0,0,0,2.34-2c0-2.5-3.76-1.43-3.77-3.32"/><polygon class="cls-1" points="10.2 59.23 7.73 63.26 5.33 59.25 4.6 59.25 7.41 63.81 7.42 66.56 8.07 66.56 8.06 63.79 10.88 59.23 10.2 59.23"/><polygon class="cls-1" points="18.48 59.21 15.21 65.77 11.92 59.23 11.28 59.23 11.3 66.55 11.94 66.55 11.93 60.56 14.91 66.54 15.47 66.54 18.5 60.46 18.52 66.53 19.17 66.53 19.15 59.21 18.48 59.21"/><path class="cls-1" d="M22.32,59.2H20l0,7.32h.64V63.35h1.64a2.11,2.11,0,0,0,2.22-2.09,2.05,2.05,0,0,0-2.23-2.06m-.13,3.56h-1.5V59.83h1.5a1.52,1.52,0,0,1,1.7,1.45,1.55,1.55,0,0,1-1.69,1.48"/><path class="cls-1" d="M28.54,59.19a3.66,3.66,0,1,0,3.67,3.65,3.61,3.61,0,0,0-3.67-3.65m0,6.73a3.08,3.08,0,1,1,3-3.08,3,3,0,0,1-3,3.08"/><path class="cls-1" d="M33.33,61.15A1.48,1.48,0,0,1,35,59.78a3.57,3.57,0,0,1,1.84.52l.14-.59A3.56,3.56,0,0,0,35,59.17a2.06,2.06,0,0,0-2.31,2c0,2.48,3.75,1.45,3.76,3.37,0,.74-.63,1.36-1.69,1.36a4.28,4.28,0,0,1-2-.43l-.09.6a4.7,4.7,0,0,0,2,.43,2.11,2.11,0,0,0,2.35-2c0-2.49-3.77-1.42-3.77-3.32"/><rect class="cls-1" x="38.12" y="59.16" width="0.64" height="7.32" transform="translate(-0.16 0.1) rotate(-0.15)"/><path class="cls-1" d="M45.83,59.14V62.8c0,1.69-1,3-2.64,3.06s-2.64-1.28-2.64-3V59.16H39.9v3.66c0,2.16,1.27,3.66,3.29,3.65a3.37,3.37,0,0,0,3.29-3.67V59.14Z"/><polygon class="cls-1" points="55.18 59.12 54.51 59.12 51.24 65.68 47.95 59.14 47.31 59.14 47.33 66.46 47.97 66.46 47.95 60.47 50.94 66.45 51.5 66.45 54.54 60.37 54.55 66.44 55.2 66.44 55.18 59.12"/><path class="cls-1" d="M0,54.31c0-.75.61-1.18,1.4-1.18a2.45,2.45,0,0,1,1.22.33L2.55,54A2.36,2.36,0,0,0,1.4,53.7c-.47,0-.78.25-.78.6,0,.89,2.15.36,2.15,1.78,0,.66-.52,1.21-1.45,1.21A3.17,3.17,0,0,1,0,57l.08-.56a2.71,2.71,0,0,0,1.22.28c.55,0,.83-.25.83-.6C2.17,55.23,0,55.75,0,54.31Z"/><path class="cls-1" d="M5.42,53.13a2.08,2.08,0,1,1,0,4.16,2.08,2.08,0,0,1,0-4.16Zm0,3.62A1.54,1.54,0,1,0,4,55.21,1.46,1.46,0,0,0,5.42,56.75Z"/><path class="cls-1" d="M8.79,54.14v3.15H8.18V53.13h.54l2.78,3.24V53.13h.61v4.16H11.5Z"/><path class="cls-1" d="M17.21,56.3a.9.9,0,0,1,0-1.8.86.86,0,0,1,.63.26.92.92,0,0,1,0,1.28A.86.86,0,0,1,17.21,56.3Z"/><path class="cls-1" d="M22.1,53.13h.6v4.16h-.6Z"/><path class="cls-1" d="M24.24,54.38v2.91h-.6V53.13h.6L26,56.57l1.77-3.44h.61v4.16h-.6v-3l-1.54,3h-.51Z"/><path class="cls-1" d="M29.76,54.38v2.91h-.6V53.13h.6l1.72,3.44,1.77-3.44h.61v4.16h-.6v-3l-1.54,3h-.51Z"/><path class="cls-1" d="M34.68,57.29V53.13h2.7v.58h-2.1v1.21h1.54v.57H35.28v1.22h2.1v.58Z"/><path class="cls-1" d="M38.08,53.13h1.53a1.22,1.22,0,0,1,1.31,1.26,1.24,1.24,0,0,1-.82,1.19l.82,1.71h-.68l-.73-1.62h-.83v1.62h-.6Zm.6.58v1.42h.79a.74.74,0,0,0,.82-.73.73.73,0,0,0-.82-.69Z"/><path class="cls-1" d="M41.5,54.31a1.24,1.24,0,0,1,1.4-1.18,2.49,2.49,0,0,1,1.23.33L44,54a2.29,2.29,0,0,0-1.14-.31c-.47,0-.78.25-.78.6,0,.89,2.14.36,2.14,1.78,0,.66-.51,1.21-1.44,1.21A3.18,3.18,0,0,1,41.5,57l.08-.56a2.74,2.74,0,0,0,1.22.28c.56,0,.83-.25.83-.6C43.63,55.23,41.5,55.75,41.5,54.31Z"/><path class="cls-1" d="M45.06,53.13h.6v4.16h-.6Z"/><path class="cls-1" d="M48.54,53.13a2.08,2.08,0,1,1-2.08,2.08A2,2,0,0,1,48.54,53.13Zm0,3.62a1.54,1.54,0,1,0-1.46-1.54A1.45,1.45,0,0,0,48.54,56.75Z"/><path class="cls-1" d="M51.9,54.14v3.15h-.6V53.13h.53l2.79,3.24V53.13h.61v4.16h-.61Z"/></g></g></svg>