<svg xmlns="http://www.w3.org/2000/svg" viewBox="0 0 52.98 49.26"><defs><style>.cls-1{fill:#fff;}</style></defs><g id="Layer_2" data-name="Layer 2"><g id="Layer_1-2" data-name="Layer 1"><g id="Layer_2-2" data-name="Layer 2"><g id="Layer_1-2-2" data-name="Layer 1-2"><g id="LOGO_IX" data-name="LOGO IX"><polygon class="cls-1" points="10.31 14.19 0 17.07 0.06 49.27 10.38 49.24 10.31 14.19"/><polygon class="cls-1" points="21.8 49.23 32.05 36.7 41.37 49.19 52.98 49.16 38.16 29.34 50.32 14.49 42.99 14.51 34.66 24.61 27.09 14.54 15.51 14.55 28.62 32.05 14.47 49.23 21.8 49.23"/><path class="cls-1" d="M.29,6.74A1.86,1.86,0,0,0,.39,7c0,.09.08.17.11.26a1.63,1.63,0,0,0,.11.23,4.77,4.77,0,0,0,.52.8,5.22,5.22,0,0,0,1,.88l.28.19A5,5,0,0,0,6.28,10a4.72,4.72,0,0,0,3.06-2.2,4.9,4.9,0,0,0,.81-3.31V4.33a.64.64,0,0,0-.05-.28c0-.07-.06-.15-.1-.23h0a5.08,5.08,0,0,0-.48-1.16A5.26,5.26,0,0,0,7.86.87,4.84,4.84,0,0,0,4.11.1,4.93,4.93,0,0,0,.86,2.34,4.9,4.9,0,0,0,.13,6.17a3.41,3.41,0,0,0,.16.57"/></g></g></g></g></g></svg>